<svg width="11" height="10" viewBox="0 0 11 10" fill="none" xmlns="http://www.w3.org/2000/svg">
<path d="M8.71251 1.2125C8.8886 1.04486 9.12292 0.952182 9.36604 0.954022C9.60915 0.955861 9.84205 1.05207 10.0156 1.22236C10.1891 1.39264 10.2897 1.62368 10.2961 1.86672C10.3025 2.10975 10.2143 2.34578 10.05 2.525L5.06251 8.7625C4.97675 8.85487 4.87325 8.929 4.75818 8.98046C4.64311 9.03191 4.51885 9.05964 4.39283 9.06197C4.2668 9.0643 4.1416 9.0412 4.02471 8.99404C3.90782 8.94688 3.80164 8.87663 3.71251 8.7875L0.405014 5.48C0.312905 5.39417 0.239028 5.29067 0.187788 5.17567C0.136548 5.06067 0.108995 4.93653 0.106774 4.81065C0.104553 4.68477 0.127709 4.55974 0.174861 4.443C0.222012 4.32627 0.292193 4.22022 0.381216 4.1312C0.47024 4.04218 0.576282 3.972 0.693017 3.92485C0.809752 3.87769 0.934789 3.85454 1.06067 3.85676C1.18655 3.85898 1.31069 3.88653 1.42569 3.93777C1.54069 3.98901 1.64419 4.06289 1.73001 4.155L4.34751 6.77125L8.68877 1.24C8.69658 1.23037 8.70493 1.22119 8.71376 1.2125H8.71251Z" fill="#0B2C80"/>
</svg>
