<svg width="30" height="30" viewBox="0 0 30 30" fill="none" xmlns="http://www.w3.org/2000/svg">
<path d="M8.71128 8.71122C8.79836 8.62391 8.90182 8.55464 9.01571 8.50738C9.12961 8.46012 9.25171 8.43579 9.37503 8.43579C9.49834 8.43579 9.62044 8.46012 9.73434 8.50738C9.84824 8.55464 9.95169 8.62391 10.0388 8.71122L15 13.6743L19.9613 8.71122C20.0484 8.62405 20.1519 8.55491 20.2658 8.50774C20.3797 8.46056 20.5018 8.43628 20.625 8.43628C20.7483 8.43628 20.8704 8.46056 20.9842 8.50774C21.0981 8.55491 21.2016 8.62405 21.2888 8.71122C21.3759 8.79838 21.4451 8.90186 21.4923 9.01575C21.5394 9.12963 21.5637 9.2517 21.5637 9.37497C21.5637 9.49824 21.5394 9.6203 21.4923 9.73419C21.4451 9.84807 21.3759 9.95155 21.2888 10.0387L16.3257 15L21.2888 19.9612C21.3759 20.0484 21.4451 20.1519 21.4923 20.2657C21.5394 20.3796 21.5637 20.5017 21.5637 20.625C21.5637 20.7482 21.5394 20.8703 21.4923 20.9842C21.4451 21.0981 21.3759 21.2016 21.2888 21.2887C21.2016 21.3759 21.0981 21.445 20.9842 21.4922C20.8704 21.5394 20.7483 21.5636 20.625 21.5636C20.5018 21.5636 20.3797 21.5394 20.2658 21.4922C20.1519 21.445 20.0484 21.3759 19.9613 21.2887L15 16.3256L10.0388 21.2887C9.95161 21.3759 9.84813 21.445 9.73425 21.4922C9.62036 21.5394 9.4983 21.5636 9.37503 21.5636C9.25176 21.5636 9.12969 21.5394 9.01581 21.4922C8.90192 21.445 8.79844 21.3759 8.71128 21.2887C8.62411 21.2016 8.55497 21.0981 8.5078 20.9842C8.46062 20.8703 8.43634 20.7482 8.43634 20.625C8.43634 20.5017 8.46062 20.3796 8.5078 20.2657C8.55497 20.1519 8.62411 20.0484 8.71128 19.9612L13.6744 15L8.71128 10.0387C8.62397 9.95163 8.5547 9.84818 8.50744 9.73428C8.46018 9.62038 8.43585 9.49828 8.43585 9.37497C8.43585 9.25165 8.46018 9.12955 8.50744 9.01565C8.5547 8.90176 8.62397 8.7983 8.71128 8.71122Z" fill="#0B2C80" fill-opacity="0.8"/>
</svg>
